<svg xmlns="http://www.w3.org/2000/svg" viewBox="0 0 512 512" width="512" height="512">
  <rect width="512" height="512" fill="#f8f4ee"/>
  <g transform="translate(40 54) scale(0.36)" fill="#000000">
    <path d="m308 92c-36 12-48 73-38 188l2 18-9 11c-29 36-51 81-60 123l-2 10-10-0.8c-26-2-62 0.1-68 4-5 3-5 10 0.3 13 2 1 4 2 14 0.4 14-2 34-2 49-0.7l12 0.8-0.6 5c-1 10-4 34-4 40v6l-5 0.6c-32 4-69 15-72 21-1 3-1 6 0.5 9 3 4 6 4 20-0.6 20-6 40-11 52-12l4-0.3 0.7 16c0.4 9 0.9 17 1 18 0.4 2-2 5-9 13-26 28-44 55-57 86-40 93-36 211 10 289 36 60 89 99 155 113 5 1 12 3 15 4 12 5 17 6 81 6 63 0.6 71 0.1 81-5 6-3 243-3 250 0 9 4 18 4 81 4 65 0.1 68-0.1 81-6 3-1 10-3 15-4 54-9 105-38 138-80 40-50 60-111 60-186 0-90-28-164-85-222l-10-10 1-16c0.6-9 1-17 1-19v-3l5 0.7c12 2 31 6 45 11 8 3 16 5 17 5 5 0 9-7 6-12-3-5-34-15-61-20-6-1-12-2-12-2s-0.8-7-2-15c-0.6-8-2-19-2-24s-0.9-10-0.5-11c2-2 37-2 63-0.1 7 0.6 8 0.5 10-2 2-2 2-4 2-6 0-5-4-8-14-10-10-2-36-2-55-1l-10 0.5-3-11c-11-45-33-88-61-123l-6-7 2-19c2-27 3-61 2-87-3-80-22-109-66-100-31 6-66 29-106 69l-20 19-19-5c-45-11-76-15-120-15-42 0-97 7-129 17l-4 1-19-19c-40-40-75-63-108-70-9-2-23-1-30 1m28 26c22 5 53 25 84 56 7 7 14 14 14 14s-6 3-13 6c-40 15-90 46-118 72-3 2-5 4-5 4-0.2-0.2-1-9-2-20-2-28-0.8-71 2-88 6-39 15-49 38-44m548 3c14 10 21 64 16 130-1 20-2 21-6 16-3-4-23-20-34-27-23-16-54-34-81-44-7-3-13-6-13-6 0-2 27-28 39-37 36-29 66-42 79-32m-260 66c157 10 286 92 332 212 7 18 14 44 13 45-0.4 0.3-4 1-9 2-19 4-53 17-58 22-3 3-3 8 0.4 11 4 3 6 3 21-4 16-7 41-14 47-14 2 0 2 0.4 4 11 2 18 3 32 2 32-0.5 0.1-9 0.8-19 1-18 1-38 4-47 7-9 2-11 12-3 15 2 1 4 1 14-0.7 6-1 13-2 15-3 7-1 34-2 38-2l4 0.4-0.6 10c-0.7 10-2 26-3 34l-0.5 4 16 16c54 55 82 124 82 207 0 115-54 202-143 232-18 6-17 7-16-8 4-88-113-124-181-56-20 20-30 42-31 66l-0.3 10h-104-104l-0.2-9c-1-54-55-102-116-102-51 0-92 33-97 79-0.6 5-0.6 12-0.2 16 0.5 4 0.6 7 0.4 7-0.8 1-18-5-29-10-65-31-109-94-122-176-4-21-4-68-1-89 10-70 36-124 81-169l13-13-1-11c-0.7-6-2-17-2-25l-0.6-13 17 0.6c12 0.4 22 1 32 3 8 1 16 2 17 2 7-2 7-13 0.7-15-8-3-30-6-46-7-7-0.3-15-0.7-17-1l-4-0.6 0.7-12c0.7-12 3-31 4-32 2-2 34 8 50 15 12 5 14 5 18 2 4-3 4-9 0.3-12-5-5-38-18-57-22l-8-2 0.6-4c1-7 8-28 12-40 32-80 101-148 190-183 59-24 132-35 196-31m-223 767c37 11 65 41 67 73 1 13-4 18-21 20-21 2-113 0.7-125-2-15-4-22-14-22-31 0-28 24-55 56-61 11-2 34-1 45 2m437-0.9c32 9 54 36 51 64-2 18-12 27-36 29-12 1-109 0.5-117-1-14-3-18-10-13-28 8-31 37-57 70-65 4-0.9 8-2 8-2 3-1 30 0.6 36 2z"/>
    <path d="m402 428c-5 2-6 9-2 12 2 2 3 2 12 2h9l0.5 8c2 36 49 36 52-0.4l0.6-7h9c11 0 14-2 14-8 0-2-0.9-4-2-6l-2-2-44 0.1c-24 0-45 0.4-46 0.9z"/>
    <path d="m694 430c-2 2-2 4-2 6 0 6 4 8 14 8h9l0.6 7c3 37 49 37 52 0.6l0.5-8h9c11 0 14-2 14-8 0-2-0.9-4-2-6l-2-2h-45-45l-2 2z"/>
    <path d="m586 469c-11 2-18 6-19 12-2 7 6 18 16 24l5 3v8 8l-6 5c-9 7-17 12-26 16-4 2-8 4-9 5-4 5-0.8 12 6 12 7 0 27-11 38-20l5-5 7 6c12 10 29 19 36 19 4 0 7-3 7-7 0-4-2-6-11-10-9-4-20-11-27-17l-5-5v-7-8l5-3c6-4 14-12 16-17 2-7-1-14-10-17-4-2-22-3-28-2z"/>
  </g>
</svg>
